<svg width="32" height="32" viewBox="0 0 32 32" fill="none" xmlns="http://www.w3.org/2000/svg">
<circle cx="16" cy="16" r="16" fill="#F4F7FD"/>
<path d="M16.2624 16.0471C15.5871 16.0471 15.0103 15.8079 14.5319 15.3295C14.0535 14.8511 13.8143 14.2742 13.8143 13.599C13.8143 12.9238 14.0535 12.3469 14.5319 11.8685C15.0103 11.3901 15.5871 11.1509 16.2624 11.1509C16.9376 11.1509 17.5144 11.3901 17.9928 11.8685C18.4712 12.3469 18.7104 12.9238 18.7104 13.599C18.7104 14.2742 18.4712 14.8511 17.9928 15.3295C17.5144 15.8079 16.9376 16.0471 16.2624 16.0471ZM12.0791 21.3737C11.7841 21.3737 11.5332 21.2703 11.3265 21.0636C11.1198 20.8569 11.0165 20.6061 11.0165 20.3111V19.8187C11.0165 19.4762 11.1095 19.159 11.2956 18.8671C11.4817 18.5752 11.7303 18.3508 12.0414 18.1939C12.7328 17.8549 13.4303 17.6007 14.1338 17.4312C14.8372 17.2617 15.5468 17.177 16.2624 17.177C16.978 17.177 17.6875 17.2617 18.391 17.4312C19.0945 17.6007 19.7919 17.8549 20.4833 18.1939C20.7944 18.3508 21.0431 18.5752 21.2291 18.8671C21.4152 19.159 21.5082 19.4762 21.5082 19.8187V20.3111C21.5082 20.6061 21.4049 20.8569 21.1982 21.0636C20.9915 21.2703 20.7407 21.3737 20.4456 21.3737H12.0791Z" fill="#8EABC1"/>
</svg>
