<svg width="40" height="40" viewBox="0 0 40 40" fill="none" xmlns="http://www.w3.org/2000/svg">
<circle cx="20" cy="20" r="20" transform="matrix(-1 0 0 1 40 0)" fill="#E5EBFB"/>
<path d="M18.509 16.4801C18.8061 16.183 18.8061 15.7012 18.509 15.4041C18.2119 15.1069 17.7302 15.1069 17.433 15.4041L13.3751 19.4621C13.0779 19.7592 13.0779 20.2409 13.3751 20.538L17.433 24.596C17.7302 24.8932 18.2119 24.8932 18.509 24.596C18.8061 24.2989 18.8061 23.8172 18.509 23.52L15.75 20.7609H25.5797C25.9999 20.7609 26.3406 20.4203 26.3406 20.0001C26.3406 19.5798 25.9999 19.2392 25.5797 19.2392H15.75L18.509 16.4801Z" fill="#375BB9"/>
</svg>
