<svg width="51" height="50" viewBox="0 0 51 50" fill="none" xmlns="http://www.w3.org/2000/svg">
<path d="M15.0834 28.6458H35.9168C36.3601 28.6458 36.7314 28.4962 37.0305 28.1971C37.3297 27.8979 37.4792 27.5267 37.4792 27.0833C37.4792 26.64 37.3297 26.2687 37.0305 25.9696C36.7314 25.6704 36.3601 25.5209 35.9168 25.5209H15.0834C14.6401 25.5209 14.2688 25.6704 13.9697 25.9696C13.6706 26.2687 13.521 26.64 13.521 27.0833C13.521 27.5267 13.6706 27.8979 13.9697 28.1971C14.2688 28.4962 14.6401 28.6458 15.0834 28.6458ZM15.0834 22.3958H35.9168C36.3601 22.3958 36.7314 22.2462 37.0305 21.9471C37.3297 21.6479 37.4792 21.2767 37.4792 20.8333C37.4792 20.39 37.3297 20.0187 37.0305 19.7196C36.7314 19.4204 36.3601 19.2709 35.9168 19.2709H15.0834C14.6401 19.2709 14.2688 19.4204 13.9697 19.7196C13.6706 20.0187 13.521 20.39 13.521 20.8333C13.521 21.2767 13.6706 21.6479 13.9697 21.9471C14.2688 22.2462 14.6401 22.3958 15.0834 22.3958ZM15.0834 16.1458H35.9168C36.3601 16.1458 36.7314 15.9962 37.0305 15.6971C37.3297 15.3979 37.4792 15.0267 37.4792 14.5833C37.4792 14.14 37.3297 13.7687 37.0305 13.4696C36.7314 13.1704 36.3601 13.0209 35.9168 13.0209H15.0834C14.6401 13.0209 14.2688 13.1704 13.9697 13.4696C13.6706 13.7687 13.521 14.14 13.521 14.5833C13.521 15.0267 13.6706 15.3979 13.9697 15.6971C14.2688 15.9962 14.6401 16.1458 15.0834 16.1458ZM9.47454 36.4583C8.42218 36.4583 7.53141 36.0937 6.80225 35.3645C6.07308 34.6354 5.7085 33.7446 5.7085 32.6922V8.97442C5.7085 7.92206 6.07308 7.03129 6.80225 6.30212C7.53141 5.57296 8.42218 5.20837 9.47454 5.20837H41.5257C42.578 5.20837 43.4688 5.57296 44.198 6.30212C44.9272 7.03129 45.2917 7.92206 45.2917 8.97442V39.2787C45.2917 40.1227 44.9064 40.707 44.1358 41.0315C43.3653 41.356 42.6835 41.2218 42.0906 40.6289L37.92 36.4583H9.47454ZM39.2501 33.3333L42.1668 36.218V8.97442C42.1668 8.81414 42.1 8.66721 41.9665 8.53364C41.8329 8.40009 41.686 8.33332 41.5257 8.33332H9.47454C9.31426 8.33332 9.16733 8.40009 9.03376 8.53364C8.90021 8.66721 8.83344 8.81414 8.83344 8.97442V32.6922C8.83344 32.8525 8.90021 32.9994 9.03376 33.133C9.16733 33.2666 9.31426 33.3333 9.47454 33.3333H39.2501Z" fill="#098BED"/>
</svg>
