<svg width="28" height="28" viewBox="0 0 28 28" fill="none" xmlns="http://www.w3.org/2000/svg">
<path d="M12.3442 16.5039L9.63395 13.7936C9.47243 13.6321 9.26939 13.5494 9.02484 13.5457C8.78028 13.5419 8.5735 13.6246 8.40449 13.7936C8.23548 13.9626 8.15097 14.1675 8.15097 14.4083C8.15097 14.6491 8.23548 14.854 8.40449 15.023L11.6061 18.2246C11.817 18.4355 12.063 18.541 12.3442 18.541C12.6254 18.541 12.8715 18.4355 13.0824 18.2246L19.573 11.7339C19.7346 11.5724 19.8172 11.3694 19.821 11.1248C19.8247 10.8803 19.7421 10.6735 19.573 10.5045C19.404 10.3355 19.1991 10.251 18.9583 10.251C18.7175 10.251 18.5126 10.3355 18.3436 10.5045L12.3442 16.5039ZM14.002 25.0833C12.469 25.0833 11.0282 24.7924 9.67934 24.2106C8.33049 23.6289 7.1572 22.8393 6.15944 21.842C5.16167 20.8447 4.37177 19.6719 3.78974 18.3237C3.20771 16.9754 2.91669 15.5349 2.91669 14.0019C2.91669 12.469 3.20758 11.0282 3.78936 9.67933C4.37114 8.33049 5.16068 7.15719 6.15799 6.15944C7.15531 5.16167 8.32809 4.37176 9.67633 3.78973C11.0246 3.2077 12.4651 2.91669 13.998 2.91669C15.531 2.91669 16.9718 3.20758 18.3207 3.78936C19.6695 4.37113 20.8428 5.16067 21.8406 6.15798C22.8383 7.1553 23.6282 8.32809 24.2103 9.67633C24.7923 11.0245 25.0833 12.4651 25.0833 13.998C25.0833 15.531 24.7924 16.9718 24.2106 18.3207C23.6289 19.6695 22.8393 20.8428 21.842 21.8405C20.8447 22.8383 19.6719 23.6282 18.3237 24.2103C16.9754 24.7923 15.5349 25.0833 14.002 25.0833ZM14 23.3333C16.6056 23.3333 18.8125 22.4292 20.6208 20.6208C22.4292 18.8125 23.3333 16.6055 23.3333 14C23.3333 11.3944 22.4292 9.18749 20.6208 7.37916C18.8125 5.57083 16.6056 4.66666 14 4.66666C11.3944 4.66666 9.1875 5.57083 7.37917 7.37916C5.57083 9.18749 4.66667 11.3944 4.66667 14C4.66667 16.6055 5.57083 18.8125 7.37917 20.6208C9.1875 22.4292 11.3944 23.3333 14 23.3333Z" fill="#098BED"/>
</svg>
