<svg width="32" height="32" viewBox="0 0 32 32" fill="none" xmlns="http://www.w3.org/2000/svg">
<path d="M8.08976 22.6948L2.56409 17.1692C2.36583 16.9709 2.26797 16.7389 2.27053 16.4731C2.27308 16.2073 2.37778 15.9709 2.58463 15.7641C2.79145 15.5709 3.02563 15.4709 3.28716 15.4641C3.54869 15.4573 3.78288 15.5573 3.98973 15.7641L8.95383 20.7282L9.41543 20.2667L10.8205 21.6718L9.77689 22.6948C9.53587 22.9222 9.25468 23.0393 8.93333 23.0461C8.61197 23.0529 8.33078 22.9358 8.08976 22.6948ZM15.6231 22.6948L10.0975 17.1692C9.91284 16.9846 9.81839 16.756 9.81413 16.4833C9.80984 16.2107 9.90428 15.9709 10.0975 15.7641C10.3043 15.5573 10.5419 15.4539 10.8103 15.4539C11.0786 15.4539 11.3162 15.5573 11.5231 15.7641L16.4667 20.7077L28.0308 9.14359C28.2291 8.9453 28.4611 8.84745 28.7269 8.85003C28.9927 8.85258 29.229 8.95728 29.4359 9.16413C29.629 9.37095 29.729 9.60513 29.7359 9.86666C29.7427 10.1282 29.6427 10.3624 29.4359 10.5692L17.3102 22.6948C17.0692 22.9358 16.788 23.0564 16.4667 23.0564C16.1453 23.0564 15.8641 22.9358 15.6231 22.6948ZM16.0051 16.4667L14.5795 15.0616L20.4769 9.16413C20.6615 8.9795 20.8902 8.88506 21.1628 8.88079C21.4355 8.8765 21.6752 8.97095 21.882 9.16413C22.0889 9.37095 22.1923 9.60855 22.1923 9.87693C22.1923 10.1453 22.0889 10.3829 21.882 10.5897L16.0051 16.4667Z" fill="#098BED"/>
</svg>
