<svg width="20" height="20" viewBox="0 0 20 20" fill="none" xmlns="http://www.w3.org/2000/svg">
<path d="M9.58329 12.8429C9.48286 12.8429 9.38938 12.8269 9.30285 12.7948C9.21631 12.7628 9.13405 12.7078 9.05606 12.6298L6.46473 10.0385C6.3408 9.91453 6.27964 9.7695 6.28125 9.60338C6.28285 9.43725 6.34401 9.28955 6.46473 9.16027C6.59401 9.03101 6.74251 8.96424 6.91023 8.95996C7.07797 8.95568 7.22647 9.01818 7.35575 9.14746L8.95831 10.75V4.375C8.95831 4.19765 9.01814 4.04915 9.13779 3.9295C9.25744 3.80983 9.40594 3.75 9.58329 3.75C9.76064 3.75 9.90914 3.80983 10.0288 3.9295C10.1484 4.04915 10.2083 4.19765 10.2083 4.375V10.75L11.8108 9.14746C11.9348 9.02353 12.0819 8.96236 12.2523 8.96396C12.4227 8.96557 12.5726 9.03101 12.7019 9.16027C12.8226 9.28955 12.8851 9.43592 12.8893 9.59938C12.8936 9.76283 12.8311 9.90919 12.7019 10.0385L10.1105 12.6298C10.0325 12.7078 9.95027 12.7628 9.86373 12.7948C9.7772 12.8269 9.68372 12.8429 9.58329 12.8429ZM4.83973 16.25C4.41879 16.25 4.06248 16.1041 3.77081 15.8125C3.47915 15.5208 3.33331 15.1645 3.33331 14.7435V13.1089C3.33331 12.9316 3.39315 12.7831 3.51281 12.6634C3.63247 12.5438 3.78097 12.484 3.95831 12.484C4.13566 12.484 4.28416 12.5438 4.40381 12.6634C4.52347 12.7831 4.58329 12.9316 4.58329 13.1089V14.7435C4.58329 14.8077 4.61 14.8664 4.66342 14.9199C4.71685 14.9733 4.77562 15 4.83973 15H14.3269C14.391 15 14.4497 14.9733 14.5032 14.9199C14.5566 14.8664 14.5833 14.8077 14.5833 14.7435V13.1089C14.5833 12.9316 14.6431 12.7831 14.7628 12.6634C14.8824 12.5438 15.0309 12.484 15.2083 12.484C15.3856 12.484 15.5341 12.5438 15.6538 12.6634C15.7734 12.7831 15.8333 12.9316 15.8333 13.1089V14.7435C15.8333 15.1645 15.6874 15.5208 15.3958 15.8125C15.1041 16.1041 14.7478 16.25 14.3269 16.25H4.83973Z" fill="white"/>
</svg>
