<svg width="28" height="28" viewBox="0 0 28 28" fill="none" xmlns="http://www.w3.org/2000/svg">
<rect width="28" height="28" rx="8" fill="#F4F7FD"/>
<path fill-rule="evenodd" clip-rule="evenodd" d="M17.8868 5.21967C17.7462 5.07902 17.5554 5 17.3565 5C17.1576 5 16.9668 5.07902 16.8262 5.21967L7.63375 14.4121C7.53952 14.5063 7.4721 14.6239 7.43843 14.7528L6.43843 18.5813C6.37114 18.8389 6.44548 19.1129 6.63375 19.3011C6.82202 19.4894 7.09601 19.5638 7.35362 19.4965L11.182 18.4965C11.311 18.4628 11.4286 18.3954 11.5228 18.3011L20.7153 9.10876C21.0081 8.81586 21.0081 8.34099 20.7153 8.0481L17.8868 5.21967ZM8.83829 15.3288L17.3565 6.81066L19.1243 8.57843L10.6061 17.0966L8.2133 17.7216L8.83829 15.3288Z" fill="#375BB9"/>
<path d="M6.75 21C6.33579 21 6 21.3358 6 21.75C6 22.1642 6.33579 22.5 6.75 22.5H21.75C22.1642 22.5 22.5 22.1642 22.5 21.75C22.5 21.3358 22.1642 21 21.75 21H6.75Z" fill="#375BB9"/>
</svg>
