<svg width="17" height="19" viewBox="0 0 17 19" fill="none" xmlns="http://www.w3.org/2000/svg">
<path fill-rule="evenodd" clip-rule="evenodd" d="M14.4379 1.83346C10.4598 1.38885 6.44445 1.38885 2.46629 1.83346C2.19712 1.86355 2.06748 2.1792 2.23783 2.38977L5.75485 6.73729C7.0147 8.29469 7.70211 10.2373 7.70211 12.2405V15.1297L9.2021 16.2297V12.2405C9.2021 10.2373 9.8895 8.29469 11.1494 6.73729L14.6664 2.38977C14.8367 2.1792 14.7071 1.86355 14.4379 1.83346ZM2.29967 0.34275C6.38857 -0.11425 10.5156 -0.11425 14.6045 0.34275C16.0515 0.50446 16.7483 2.20125 15.8326 3.33318L12.3155 7.68069C11.2716 8.97119 10.7021 10.5807 10.7021 12.2405V17.7098C10.7021 17.9924 10.5432 18.2511 10.2911 18.3788C10.039 18.5066 9.7365 18.4817 9.50861 18.3146L6.50861 16.1146C6.31593 15.9733 6.20211 15.7487 6.20211 15.5098V12.2405C6.20211 10.5807 5.63259 8.97119 4.58867 7.68069L1.07165 3.33318C0.155955 2.20125 0.852745 0.50446 2.29967 0.34275Z" fill="#375BB9"/>
</svg>
