<svg width="18" height="19" viewBox="0 0 18 19" fill="none" xmlns="http://www.w3.org/2000/svg">
<path d="M2.49997 16.5833H6.12499V11.125C6.12499 10.8476 6.21883 10.615 6.4065 10.4273C6.59417 10.2397 6.82672 10.1458 7.10417 10.1458H10.8958C11.1732 10.1458 11.4058 10.2397 11.5934 10.4273C11.7811 10.615 11.8749 10.8476 11.8749 11.125V16.5833H15.5V7C15.5 6.94445 15.4878 6.8941 15.4635 6.84896C15.4392 6.80382 15.4062 6.76389 15.3646 6.72917L9.1979 2.09375C9.14234 2.04514 9.07637 2.02084 8.99997 2.02084C8.92358 2.02084 8.8576 2.04514 8.80205 2.09375L2.63539 6.72917C2.59374 6.76389 2.56075 6.80382 2.53643 6.84896C2.51212 6.8941 2.49997 6.94445 2.49997 7V16.5833ZM0.875 16.5833V7C0.875 6.68994 0.94436 6.39619 1.08308 6.11877C1.2218 5.84134 1.41355 5.61288 1.65833 5.43337L7.82499 0.787548C8.1672 0.526428 8.5583 0.395869 8.99829 0.395869C9.43829 0.395869 9.83051 0.526428 10.175 0.787548L16.3416 5.43337C16.5864 5.61288 16.7781 5.84134 16.9169 6.11877C17.0556 6.39619 17.1249 6.68994 17.1249 7V16.5833C17.1249 17.0264 16.9649 17.408 16.6447 17.7281C16.3246 18.0482 15.943 18.2083 15.5 18.2083H11.2291C10.9517 18.2083 10.7192 18.1145 10.5315 17.9268C10.3438 17.7391 10.25 17.5066 10.25 17.2291V11.7708H7.74997V17.2291C7.74997 17.5066 7.65613 17.7391 7.46846 17.9268C7.28078 18.1145 7.04822 18.2083 6.7708 18.2083H2.49997C2.05693 18.2083 1.67534 18.0482 1.35521 17.7281C1.03507 17.408 0.875 17.0264 0.875 16.5833Z" fill="#375BB9"/>
</svg>
