<svg width="24" height="24" viewBox="0 0 24 24" fill="none" xmlns="http://www.w3.org/2000/svg">
<path d="M9.57698 14.5H6.53465C6.19877 14.5 5.95262 14.3513 5.7962 14.0538C5.6398 13.7564 5.65903 13.4699 5.8539 13.1942L12.4058 3.74237C12.5404 3.55392 12.7122 3.42508 12.9211 3.35585C13.1301 3.28662 13.3474 3.29239 13.5731 3.37317C13.7987 3.45394 13.9637 3.59207 14.0682 3.78757C14.1727 3.98309 14.2115 4.19367 14.1846 4.4193L13.4327 10.5H17.1634C17.5198 10.5 17.7711 10.6596 17.9173 10.9789C18.0634 11.2981 18.0205 11.5955 17.7884 11.8712L10.5443 20.548C10.3994 20.7198 10.2225 20.831 10.0135 20.8817C9.80451 20.9323 9.60067 20.9121 9.40195 20.8211C9.20323 20.7301 9.04908 20.591 8.93948 20.4038C8.82986 20.2166 8.78851 20.0102 8.81543 19.7845L9.57698 14.5Z" fill="#375BB9"/>
</svg>
