<svg width="24" height="24" viewBox="0 0 24 24" fill="none" xmlns="http://www.w3.org/2000/svg">
<path d="M6.57595 21C6.14117 21 5.76982 20.846 5.4619 20.5381C5.15397 20.2302 5 19.8588 5 19.424V11.2426C5 10.8078 5.15397 10.4365 5.4619 10.1286C5.76982 9.82062 6.14117 9.66665 6.57595 9.66665H7.6154V7.92305C7.6154 6.83444 7.99709 5.90844 8.76046 5.14506C9.52385 4.38169 10.4499 4 11.5385 4C12.6271 4 13.5531 4.38169 14.3165 5.14506C15.0799 5.90844 15.4615 6.83444 15.4615 7.92305V9.66665H16.501C16.9358 9.66665 17.3071 9.82062 17.615 10.1286C17.923 10.4365 18.0769 10.8078 18.0769 11.2426V19.424C18.0769 19.8588 17.923 20.2302 17.615 20.5381C17.3071 20.846 16.9358 21 16.501 21H6.57595ZM6.57595 19.6923H16.501C16.5792 19.6923 16.6435 19.6672 16.6938 19.6169C16.7441 19.5666 16.7693 19.5023 16.7693 19.424V11.2426C16.7693 11.1644 16.7441 11.1001 16.6938 11.0498C16.6435 10.9995 16.5792 10.9743 16.501 10.9743H6.57595C6.49771 10.9743 6.43343 10.9995 6.38313 11.0498C6.33283 11.1001 6.30768 11.1644 6.30768 11.2426V19.424C6.30768 19.5023 6.33283 19.5666 6.38313 19.6169C6.43343 19.6672 6.49771 19.6923 6.57595 19.6923ZM11.5385 16.8589C11.9621 16.8589 12.3222 16.7106 12.619 16.4138C12.9157 16.1171 13.0641 15.7569 13.0641 15.3333C13.0641 14.9097 12.9157 14.5495 12.619 14.2528C12.3222 13.9561 11.9621 13.8077 11.5385 13.8077C11.1149 13.8077 10.7547 13.9561 10.458 14.2528C10.1612 14.5495 10.0128 14.9097 10.0128 15.3333C10.0128 15.7569 10.1612 16.1171 10.458 16.4138C10.7547 16.7106 11.1149 16.8589 11.5385 16.8589ZM8.92307 9.66665H14.1539V7.92305C14.1539 7.19655 13.8996 6.57903 13.391 6.07048C12.8825 5.56193 12.265 5.30765 11.5385 5.30765C10.812 5.30765 10.1944 5.56193 9.6859 6.07048C9.17735 6.57903 8.92307 7.19655 8.92307 7.92305V9.66665Z" fill="#098BED"/>
</svg>
