<svg width="69" height="68" viewBox="0 0 69 68" fill="none" xmlns="http://www.w3.org/2000/svg">
<rect x="0.5" width="68" height="68" rx="34" fill="#F4F7FD"/>
<path d="M34.5 32.8894C32.5693 32.8894 30.9199 32.2108 29.5519 30.8537C28.184 29.4966 27.5 27.8602 27.5 25.9447C27.5 24.0292 28.184 22.3929 29.5519 21.0357C30.9199 19.6786 32.5693 19 34.5 19C36.4307 19 38.0801 19.6786 39.4481 21.0357C40.816 22.3929 41.5 24.0292 41.5 25.9447C41.5 27.8602 40.816 29.4966 39.4481 30.8537C38.0801 32.2108 36.4307 32.8894 34.5 32.8894ZM19.5 44.9856V43.589C19.5 42.6172 19.766 41.7174 20.2981 40.8893C20.8301 40.0613 21.541 39.4247 22.4308 38.9795C24.4077 38.0179 26.4019 37.2968 28.4135 36.816C30.425 36.3352 32.4539 36.0948 34.5 36.0948C36.5461 36.0948 38.575 36.3352 40.5865 36.816C42.5981 37.2968 44.5923 38.0179 46.5692 38.9795C47.459 39.4247 48.1699 40.0613 48.7019 40.8893C49.234 41.7174 49.5 42.6172 49.5 43.589V44.9856C49.5 45.8225 49.2045 46.5341 48.6134 47.1204C48.0224 47.7068 47.3052 48 46.4616 48H22.5384C21.6948 48 20.9776 47.7068 20.3866 47.1204C19.7955 46.5341 19.5 45.8225 19.5 44.9856Z" fill="#375BB9"/>
</svg>
