<svg width="30" height="30" viewBox="0 0 30 30" fill="none" xmlns="http://www.w3.org/2000/svg">
<path d="M8.05532 21.0408C7.68673 20.8357 7.39788 20.5589 7.18875 20.2106C6.97961 19.8622 6.87503 19.4715 6.87503 19.0384V13.6153L4.37988 12.2356C4.17475 12.1186 4.02412 11.9763 3.92797 11.8086C3.83183 11.6409 3.78375 11.4546 3.78375 11.2497C3.78375 11.0448 3.83183 10.8586 3.92797 10.6911C4.02412 10.5236 4.17475 10.3814 4.37988 10.2644L13.9238 5.06444C14.0932 4.97023 14.2677 4.9011 14.4472 4.85703C14.6267 4.81295 14.811 4.79091 15 4.79091C15.189 4.79091 15.3733 4.81295 15.5528 4.85703C15.7323 4.9011 15.907 4.97013 16.0767 5.06413L26.8557 10.9303C27.048 11.0344 27.1954 11.1753 27.298 11.353C27.4005 11.5306 27.4518 11.7222 27.4518 11.9279V19.3028C27.4518 19.5684 27.3619 19.7911 27.1822 19.9708C27.0024 20.1505 26.7797 20.2403 26.5139 20.2403C26.2482 20.2403 26.0256 20.1505 25.8461 19.9708C25.6666 19.7911 25.5769 19.5684 25.5769 19.3028V12.2884L23.125 13.6153V19.0384C23.125 19.4715 23.0204 19.8622 22.8113 20.2106C22.6021 20.5589 22.3133 20.8357 21.9447 21.0408L16.0793 24.2114C15.9078 24.3076 15.7323 24.3777 15.5528 24.4218C15.3733 24.4658 15.189 24.4879 15 24.4879C14.811 24.4879 14.6267 24.4658 14.4472 24.4218C14.2677 24.3777 14.0922 24.3076 13.9207 24.2114L8.05532 21.0408ZM14.8558 15.8029C14.9119 15.8349 14.9619 15.851 15.006 15.851C15.0501 15.851 15.1002 15.8349 15.1563 15.8029L23.5505 11.25L15.1563 6.70916C15.1002 6.6771 15.0501 6.66106 15.006 6.66106C14.9619 6.66106 14.9119 6.6771 14.8558 6.70916L6.44953 11.25L14.8558 15.8029ZM14.8438 22.5889C14.8998 22.6209 14.9519 22.637 15 22.637C15.0481 22.637 15.1002 22.6209 15.1563 22.5889L21.0697 19.3942C21.1338 19.3541 21.1799 19.308 21.2079 19.2559C21.236 19.2039 21.25 19.1378 21.25 19.0576V14.6153L16.0986 17.4447C15.9271 17.5408 15.7492 17.6109 15.5649 17.655C15.3806 17.6991 15.1923 17.7211 15 17.7211C14.8077 17.7211 14.6194 17.6991 14.4351 17.655C14.2508 17.6109 14.0729 17.5408 13.9014 17.4447L8.75 14.6153V19.0576C8.75 19.1217 8.76402 19.1838 8.79207 19.2439C8.82013 19.304 8.86621 19.3541 8.93032 19.3942L14.8438 22.5889Z" fill="#375BB9"/>
</svg>
