<svg width="21" height="18" viewBox="0 0 21 18" fill="none" xmlns="http://www.w3.org/2000/svg">
<path d="M3.98132 14.2353C3.66188 14.0575 3.41154 13.8177 3.2303 13.5158C3.04904 13.2139 2.95841 12.8753 2.95841 12.4999V7.79994L0.795939 6.60414C0.618164 6.50275 0.487613 6.37941 0.404286 6.2341C0.32096 6.08878 0.279297 5.92732 0.279297 5.74971C0.279297 5.57211 0.32096 5.41075 0.404286 5.26562C0.487613 5.12047 0.618164 4.99721 0.795939 4.89583L9.0673 0.38916C9.21414 0.307513 9.36536 0.247595 9.52094 0.209407C9.67655 0.171201 9.83625 0.1521 10 0.1521C10.1638 0.1521 10.3235 0.171201 10.4792 0.209407C10.6347 0.247595 10.7861 0.307422 10.9332 0.388889L20.275 5.47289C20.4416 5.56317 20.5694 5.68528 20.6583 5.83922C20.7472 5.99314 20.7916 6.15923 20.7916 6.33747V12.7291C20.7916 12.9593 20.7137 13.1523 20.5579 13.308C20.4021 13.4637 20.2091 13.5416 19.9788 13.5416C19.7485 13.5416 19.5555 13.4637 19.4 13.308C19.2444 13.1523 19.1667 12.9593 19.1667 12.7291V6.64996L17.0417 7.79994V12.4999C17.0417 12.8753 16.9511 13.2139 16.7698 13.5158C16.5886 13.8177 16.3382 14.0575 16.0188 14.2353L10.9355 16.9832C10.7868 17.0666 10.6347 17.1273 10.4792 17.1655C10.3235 17.2037 10.1638 17.2228 10 17.2228C9.83625 17.2228 9.67655 17.2037 9.52094 17.1655C9.36536 17.1273 9.21326 17.0666 9.06464 16.9832L3.98132 14.2353ZM9.87503 9.6958C9.92365 9.72359 9.96706 9.73749 10.0052 9.73749C10.0435 9.73749 10.0869 9.72359 10.1355 9.6958L17.4105 5.74998L10.1355 1.81458C10.0869 1.78679 10.0435 1.7729 10.0052 1.7729C9.96706 1.7729 9.92365 1.78679 9.87503 1.81458L2.58964 5.74998L9.87503 9.6958ZM9.86463 15.577C9.91324 15.6048 9.95837 15.6187 10 15.6187C10.0417 15.6187 10.0869 15.6048 10.1355 15.577L15.2604 12.8083C15.316 12.7736 15.3559 12.7336 15.3803 12.6885C15.4046 12.6433 15.4167 12.586 15.4167 12.5166V8.66661L10.9521 11.1187C10.8035 11.202 10.6494 11.2628 10.4896 11.301C10.3299 11.3392 10.1667 11.3583 10 11.3583C9.83338 11.3583 9.67018 11.3392 9.51046 11.301C9.35074 11.2628 9.19657 11.202 9.04796 11.1187L4.58338 8.66661V12.5166C4.58338 12.5721 4.59553 12.626 4.61983 12.6781C4.64416 12.7302 4.68409 12.7736 4.73965 12.8083L9.86463 15.577Z" fill="#7784A4"/>
</svg>
