<svg width="18" height="16" viewBox="0 0 18 16" fill="none" xmlns="http://www.w3.org/2000/svg">
<path d="M8.99997 7.66663C7.95728 7.66663 7.06467 7.29537 6.32213 6.55285C5.5796 5.81032 5.20833 4.91771 5.20833 3.87501C5.20833 2.83231 5.5796 1.93969 6.32213 1.19718C7.06467 0.454641 7.95728 0.083374 8.99997 0.083374C10.0427 0.083374 10.9353 0.454641 11.6778 1.19718C12.4203 1.93969 12.7916 2.83231 12.7916 3.87501C12.7916 4.91771 12.4203 5.81032 11.6778 6.55285C10.9353 7.29537 10.0427 7.66663 8.99997 7.66663ZM0.875 14.2708V13.5083C0.875 12.9778 1.0191 12.4865 1.3073 12.0344C1.59549 11.5823 1.98055 11.2347 2.46249 10.9917C3.53333 10.4667 4.61354 10.0729 5.70312 9.81044C6.7927 9.54794 7.89165 9.4167 8.99997 9.4167C10.1083 9.4167 11.2072 9.54794 12.2968 9.81044C13.3864 10.0729 14.4666 10.4667 15.5375 10.9917C16.0194 11.2347 16.4045 11.5823 16.6926 12.0344C16.9808 12.4865 17.1249 12.9778 17.1249 13.5083V14.2708C17.1249 14.7277 16.9649 15.1163 16.6447 15.4364C16.3246 15.7565 15.9361 15.9166 15.4791 15.9166H2.5208C2.06387 15.9166 1.67534 15.7565 1.35521 15.4364C1.03507 15.1163 0.875 14.7277 0.875 14.2708ZM2.49997 14.2916H15.5V13.5083C15.5 13.2889 15.4364 13.0857 15.3093 12.8989C15.1823 12.7121 15.0097 12.5597 14.7916 12.4416C13.8583 11.9819 12.9066 11.6337 11.9366 11.3968C10.9665 11.16 9.98765 11.0416 8.99997 11.0416C8.0123 11.0416 7.03343 11.16 6.06338 11.3968C5.09333 11.6337 4.14164 11.9819 3.20831 12.4416C2.99025 12.5597 2.81769 12.7121 2.69061 12.8989C2.56352 13.0857 2.49997 13.2889 2.49997 13.5083V14.2916ZM8.99997 6.04168C9.59581 6.04168 10.1059 5.82953 10.5302 5.40522C10.9545 4.98092 11.1666 4.47085 11.1666 3.87501C11.1666 3.27918 10.9545 2.76911 10.5302 2.34481C10.1059 1.9205 9.59581 1.70835 8.99997 1.70835C8.40414 1.70835 7.89407 1.9205 7.46976 2.34481C7.04546 2.76911 6.83331 3.27918 6.83331 3.87501C6.83331 4.47085 7.04546 4.98092 7.46976 5.40522C7.89407 5.82953 8.40414 6.04168 8.99997 6.04168Z" fill="#7784A4"/>
</svg>
