<svg width="20" height="20" viewBox="0 0 20 20" fill="none" xmlns="http://www.w3.org/2000/svg">
<path d="M5.31067 9.79167L8.07992 12.5609C8.20385 12.6849 8.26502 12.8299 8.26342 12.996C8.26181 13.1621 8.19637 13.3098 8.06711 13.4391C7.93783 13.5598 7.79146 13.6223 7.628 13.6266C7.46454 13.6309 7.31818 13.5684 7.18892 13.4391L3.44373 9.69392C3.29309 9.54328 3.21777 9.36754 3.21777 9.16669C3.21777 8.96584 3.29309 8.7901 3.44373 8.63946L7.18892 4.89427C7.30429 4.77888 7.44718 4.71986 7.61759 4.71719C7.78799 4.71451 7.93783 4.77354 8.06711 4.89427C8.19637 5.02354 8.261 5.17204 8.261 5.33977C8.261 5.50749 8.19637 5.656 8.06711 5.78527L5.31067 8.54171H13.1248C14.2188 8.54171 15.152 8.92793 15.9244 9.70036C16.6969 10.4728 17.0831 11.406 17.0831 12.5V14.7917C17.0831 14.969 17.0233 15.1175 16.9036 15.2372C16.784 15.3568 16.6355 15.4167 16.4581 15.4167C16.2808 15.4167 16.1323 15.3568 16.0126 15.2372C15.893 15.1175 15.8331 14.969 15.8331 14.7917V12.5C15.8331 11.7522 15.5687 11.1138 15.0399 10.5849C14.511 10.0561 13.8726 9.79167 13.1248 9.79167H5.31067Z" fill="#098BED"/>
</svg>
