<svg width="24" height="24" viewBox="0 0 24 24" fill="none" xmlns="http://www.w3.org/2000/svg">
<path d="M20.6923 8.50003C21.1679 8.50003 21.5881 8.6824 21.9529 9.04715C22.3176 9.41189 22.5 9.83208 22.5 10.3077V11.9231C22.5 12.0269 22.4891 12.1391 22.4673 12.2596C22.4455 12.3801 22.4128 12.4923 22.3692 12.5962L19.5038 19.3577C19.3602 19.6782 19.1198 19.9487 18.7827 20.1692C18.4455 20.3897 18.0949 20.5 17.7308 20.5H9.6346C9.13588 20.5 8.70993 20.3234 8.35673 19.9702C8.00351 19.617 7.8269 19.191 7.8269 18.6923V9.2481C7.8269 9.00709 7.87626 8.77536 7.97498 8.55293C8.07369 8.3305 8.20511 8.13723 8.36923 7.97313L13.6596 2.71735C13.8583 2.5289 14.0884 2.41288 14.35 2.36928C14.6115 2.3257 14.8621 2.3648 15.1019 2.4866C15.3416 2.60839 15.5147 2.78723 15.6211 3.02313C15.7275 3.25901 15.7487 3.50965 15.6846 3.77503L14.6076 8.50003H20.6923ZM4.30773 20.5C3.80901 20.5 3.38305 20.3234 3.02985 19.9702C2.67663 19.617 2.50002 19.191 2.50002 18.6923V10.3077C2.50002 9.80901 2.67663 9.38305 3.02985 9.02985C3.38305 8.67664 3.80901 8.50003 4.30773 8.50003H4.51927C5.01799 8.50003 5.44395 8.67664 5.79715 9.02985C6.15035 9.38305 6.32695 9.80901 6.32695 10.3077V18.7019C6.32695 19.2006 6.15035 19.625 5.79715 19.975C5.44395 20.325 5.01799 20.5 4.51927 20.5H4.30773Z" fill="#375BB9"/>
</svg>
