<svg width="24" height="24" viewBox="0 0 24 24" fill="none" xmlns="http://www.w3.org/2000/svg">
<g clip-path="url(#clip0_1370_5628)">
<path d="M19.3436 2.98556H18.6754L11.9991 3.95136L5.32288 2.98556H4.55821C3.73376 2.98556 3.06543 2.31723 3.06543 1.49278C3.06538 0.66833 3.73376 0 4.55821 0H19.3436C20.168 0 20.8363 0.66833 20.8363 1.49278C20.8364 2.31723 20.168 2.98556 19.3436 2.98556Z" fill="#B98080"/>
<path d="M19.4409 0H17.9922C18.8166 0 19.485 0.66833 19.485 1.49278C19.485 2.31723 18.8166 2.98556 17.9922 2.98556H19.4409C20.2653 2.98556 20.9337 2.31723 20.9337 1.49278C20.9337 0.66833 20.2653 0 19.4409 0Z" fill="#AE6C6C"/>
<path d="M18.5792 4.85958V2.9856H5.32324V4.85958C5.32324 7.76662 7.18133 10.2393 9.77464 11.1557C9.94925 11.2174 10.1004 11.3317 10.2074 11.4829C10.3143 11.6342 10.3717 11.8148 10.3717 12C10.3717 12.1852 10.3143 12.3658 10.2074 12.517C10.1004 12.6682 9.94925 12.7826 9.77464 12.8443C7.18138 13.7606 5.32324 16.2334 5.32324 19.1404V21.0144H18.5791V19.1404C18.5791 16.2334 16.721 13.7606 14.1277 12.8443C13.9531 12.7826 13.8019 12.6683 13.6949 12.5171C13.5879 12.3659 13.5305 12.1852 13.5305 12H13.627C13.627 11.6204 13.7698 11.2822 14.1277 11.1557C16.721 10.2394 18.5792 7.76662 18.5792 4.85958Z" fill="#EFEDEF"/>
<path d="M5.32324 2.9856V3.93203H16.2995C16.8118 3.93203 17.227 4.34732 17.227 4.85958C17.227 7.75759 15.3805 10.224 12.7998 11.1471C12.4805 11.2613 12.2363 11.5339 12.1878 11.8695C12.1576 12.0749 12.1998 12.2845 12.307 12.4623C12.4142 12.6401 12.5799 12.7751 12.7757 12.8443C15.3689 13.7606 17.227 16.2334 17.227 19.1404V21.0144H18.6757V19.1404C18.6757 16.2424 16.8291 13.776 14.2485 12.8529C13.9292 12.7387 13.6849 12.4661 13.6365 12.1305C13.6063 11.925 13.6485 11.7155 13.7557 11.5377C13.8629 11.3599 14.0286 11.2249 14.2243 11.1557C16.8176 10.2393 18.6757 7.76657 18.6757 4.85958V2.9856H5.32324Z" fill="#D7D0D6"/>
<path d="M19.3436 23.9999H4.55821C3.73376 23.9999 3.06543 23.3316 3.06543 22.5072C3.06543 21.6827 3.73376 21.0144 4.55821 21.0144H5.32297L11.9992 20.0486L18.6755 21.0144H19.3437C20.1681 21.0144 20.8364 21.6827 20.8364 22.5072C20.8364 23.3316 20.168 23.9999 19.3436 23.9999Z" fill="#B98080"/>
<path d="M19.4409 21.0144H17.9922C18.8166 21.0144 19.485 21.6827 19.485 22.5072C19.485 23.3316 18.8166 24 17.9922 24H19.4409C20.2653 24 20.9337 23.3316 20.9337 22.5072C20.9337 21.6827 20.2653 21.0144 19.4409 21.0144Z" fill="#AE6C6C"/>
<path d="M15.2143 15.7771H14.5112C13.8041 15.7771 13.1042 15.2656 12.9886 14.568L12.7017 12.8377C12.5556 11.9569 13.235 11.1557 14.1277 11.1557C15.8601 10.5436 17.2634 9.2363 18.0049 7.56958H5.89746C6.6389 9.23635 8.0422 10.5436 9.77459 11.1557C10.6673 11.1557 11.3467 11.9569 11.2006 12.8377L10.9137 14.568C10.7981 15.2656 10.1948 15.7771 9.4877 15.7771H8.68797C6.84456 15.7771 5.33329 17.2603 5.32334 19.1037L5.32324 19.1405V21.0145H18.5791V19.1405L18.579 19.1037C18.569 17.2603 17.0577 15.7771 15.2143 15.7771Z" fill="#FED402"/>
<path d="M18.675 19.1037C18.665 17.2603 17.1537 15.7771 15.3103 15.7771H14.5106C13.8034 15.7771 13.2002 15.2656 13.0845 14.568L12.7976 12.8377C12.6516 11.9569 13.3309 11.1557 14.2237 11.1557C15.9561 10.5436 17.3593 9.2363 18.1008 7.56958H16.6521C15.9107 9.23635 14.5074 10.5436 12.775 11.1557C11.8822 11.1557 11.2029 11.9569 11.3489 12.8377L11.6358 14.568C11.7515 15.2656 12.3548 15.7771 13.0619 15.7771H13.8616C15.705 15.7771 17.2163 17.2603 17.2263 19.1037L17.2264 19.1405V21.0145H18.6751V19.1405L18.675 19.1037Z" fill="#FAC600"/>
</g>
<defs>
<clipPath id="clip0_1370_5628">
<rect width="24" height="24" fill="white"/>
</clipPath>
</defs>
</svg>
