<svg width="28" height="28" viewBox="0 0 28 28" fill="none" xmlns="http://www.w3.org/2000/svg">
<path d="M5.30616 22.7499C4.71684 22.7499 4.21801 22.5458 3.80968 22.1374C3.40136 21.7291 3.1972 21.2303 3.1972 20.641V7.35898C3.1972 6.76966 3.40136 6.27083 3.80968 5.8625C4.21801 5.45417 4.71684 5.25 5.30616 5.25H18.5881C19.1775 5.25 19.6763 5.45417 20.0846 5.8625C20.493 6.27083 20.6971 6.76966 20.6971 7.35898V12.6987L23.9009 9.49492C24.0729 9.32291 24.2663 9.27991 24.4809 9.36591C24.6955 9.45192 24.8028 9.61607 24.8028 9.85836V18.1416C24.8028 18.3839 24.6955 18.548 24.4809 18.634C24.2663 18.72 24.0729 18.677 23.9009 18.505L20.6971 15.3012V20.641C20.6971 21.2303 20.493 21.7291 20.0846 22.1374C19.6763 22.5458 19.1775 22.7499 18.5881 22.7499H5.30616Z" fill="#375BB9"/>
</svg>
